<?xml version="1.0" ?><svg id="Icons" style="enable-background:new 0 0 32 32;" version="1.1" viewBox="0 0 32 32" xml:space="preserve" xmlns="http://www.w3.org/2000/svg" xmlns:xlink="http://www.w3.org/1999/xlink"><style type="text/css">
	.st0{fill:#FFFFFF;}
</style><g><path d="M26,7H9C8.4,7,8,6.6,8,6s0.4-1,1-1h17c0.6,0,1,0.4,1,1S26.6,7,26,7z"/></g><path d="M31.7,30.1l-2.8-2.8c0.7-1,1-2.1,1-3.3c0-3.3-2.7-6-5.9-6S18,20.7,18,24s2.7,6,5.9,6c1.2,0,2.4-0.4,3.3-1l2.8,2.8  c0.4,0.4,1.2,0.4,1.6,0C32.1,31.3,32.1,30.5,31.7,30.1z"/><path d="M16,24c0-4.4,3.6-8,7.9-8c1.1,0,2.1,0.2,3.1,0.6V9c0-0.6-0.4-1-1-1H11H9C7.9,8,7,7.1,7,6s0.9-2,2-2h17c0.6,0,1-0.4,1-1  s-0.4-1-1-1H9C6.8,2,5,3.8,5,6v20c0,2.2,1.8,4,4,4h2h7.8C17.1,28.5,16,26.4,16,24z"/></svg>