<?xml version="1.0" ?><!DOCTYPE svg  PUBLIC '-//W3C//DTD SVG 1.1//EN'  'http://www.w3.org/Graphics/SVG/1.1/DTD/svg11.dtd'><svg height="100%" style="fill-rule:evenodd;clip-rule:evenodd;stroke-linejoin:round;stroke-miterlimit:2;" version="1.1" viewBox="0 0 64 64" width="100%" xml:space="preserve" xmlns="http://www.w3.org/2000/svg" xmlns:serif="http://www.serif.com/" xmlns:xlink="http://www.w3.org/1999/xlink"><g id="ICON"><path d="M59,43l-54,-0l0,-8c0,-0.552 -0.448,-1 -1,-1c-0.552,-0 -1,0.448 -1,1l0,13c-0,0.796 0.316,1.559 0.879,2.121c0.562,0.563 1.325,0.879 2.121,0.879l20.606,0c-0.16,2.682 -0.855,6.147 -3.417,8l-1.689,-0c-0.552,0 -1,0.448 -1,1c0,0.552 0.448,1 1,1l21,-0c0.552,0 1,-0.448 1,-1c0,-0.552 -0.448,-1 -1,-1l-1.689,-0c-2.562,-1.854 -3.257,-5.318 -3.417,-8l20.606,-0c0.796,-0 1.559,-0.316 2.121,-0.879c0.563,-0.562 0.879,-1.325 0.879,-2.121c0,-6.028 0,-23.972 0,-30c0,-0.796 -0.316,-1.559 -0.879,-2.121c-0.562,-0.563 -1.325,-0.879 -2.121,-0.879l-10,-0c-0.552,-0 -1,0.448 -1,1c0,0.552 0.448,1 1,1l10,-0c0.265,0 0.52,0.105 0.707,0.293c0.188,0.187 0.293,0.442 0.293,0.707l0,25Zm-42,-35.002l0,29.002c0,0.796 0.316,1.559 0.879,2.121c0.562,0.563 1.325,0.879 2.121,0.879c5,-0 18,-0 23,-0c0.796,0 1.559,-0.316 2.121,-0.879c0.563,-0.562 0.879,-1.325 0.879,-2.121c-0,-3.646 -0,-20.082 -0,-23c0,-0.796 -0.316,-1.559 -0.879,-2.121c-0.562,-0.563 -1.325,-0.879 -2.121,-0.879l-0.057,0l0,-7c0,-0.552 -0.447,-1 -1,-1l-19.945,0c-2.76,-0 -4.998,2.238 -4.998,4.998Zm-10,28.002l0,2c0,0.552 0.448,1 1,1c0.552,-0 1,-0.448 1,-1l0,-2c0,-0.552 -0.448,-1 -1,-1c-0.552,-0 -1,0.448 -1,1Zm2,-3l0,-13c0,-0.552 -0.448,-1 -1,-1c-0.552,-0 -1,0.448 -1,1l0,13c0,0.552 0.448,1 1,1c0.552,-0 1,-0.448 1,-1Zm6,-18l-9,0c-0.796,0 -1.559,0.316 -2.121,0.879c-0.563,0.562 -0.879,1.325 -0.879,2.121c0,2.678 0,7.708 0,13c0,0.552 0.448,1 1,1c0.552,-0 1,-0.448 1,-1l0,-13c-0,-0.265 0.105,-0.52 0.293,-0.707c0.187,-0.188 0.442,-0.293 0.707,-0.293c0,-0 9,-0 9,-0c0.552,-0 1,-0.448 1,-1c-0,-0.552 -0.448,-1 -1,-1Zm27,4c-0,-1.657 -1.343,-3 -3,-3l-15,0c-1.657,0 -3,1.343 -3,3c0,0.941 0,2.059 0,3c0,1.657 1.343,3 3,3l15,-0c1.657,-0 3,-1.343 3,-3l-0,-3Zm-2,-0l0,3c-0,0.552 -0.448,1 -1,1c-0,-0 -15,-0 -15,-0c-0.552,-0 -1,-0.448 -1,-1c0,-0 -0,-3 -0,-3c0,-0.552 0.448,-1 1,-1c0,0 15,0 15,0c0.552,0 1,0.448 1,1Zm0.943,-12l0,-2l-18.945,0c-1.656,-0 -2.998,1.342 -2.998,2.998c0,-0 0,0.004 0,0.004c0,1.656 1.342,2.998 2.998,2.998c0,0 18.945,-0 18.945,-0l0,-2l-12.943,-0c-0.552,0 -1,-0.448 -1,-1c-0,-0.552 0.448,-1 1,-1l12.943,-0Z"/></g></svg>