<?xml version="1.0" ?><!DOCTYPE svg  PUBLIC '-//W3C//DTD SVG 1.1//EN'  'http://www.w3.org/Graphics/SVG/1.1/DTD/svg11.dtd'><svg enable-background="new 0 0 50 50" height="50px" id="Layer_1" version="1.1" viewBox="0 0 50 50" width="50px" xml:space="preserve" xmlns="http://www.w3.org/2000/svg" xmlns:xlink="http://www.w3.org/1999/xlink"><rect fill="none" height="50" width="50"/><path d="M32,16c0,0.552-0.447,1-1,1H19  c-0.552,0-1-0.448-1-1v-2c0-0.552,0.448-1,1-1h12c0.553,0,1,0.448,1,1V16z" fill="none" stroke="#000000" stroke-miterlimit="10" stroke-width="1.9804"/><rect fill="none" height="50" width="50"/><line fill="none" stroke="#000000" stroke-linecap="round" stroke-linejoin="round" stroke-miterlimit="10" stroke-width="1.9804" x1="9.577" x2="15.346" y1="49" y2="44.166"/><line fill="none" stroke="#000000" stroke-linecap="round" stroke-linejoin="round" stroke-miterlimit="10" stroke-width="1.9804" x1="40.423" x2="34.654" y1="49" y2="44.166"/><path d="  M9,15v23.286C9,41.44,11.688,44,15,44h20c3.312,0,6-2.56,6-5.714V15c0-3.154-6-7-16-7S9,11.846,9,15z" fill="none" stroke="#000000" stroke-linecap="round" stroke-linejoin="round" stroke-miterlimit="10" stroke-width="2"/><path d="  M13,18.833C13,17.821,13.896,17,15,17h20c1.104,0,2,0.821,2,1.833v8.333C37,28.178,36.104,29,35,29H15c-1.104,0-2-0.822-2-1.834  V18.833z" fill="none" stroke="#000000" stroke-linecap="round" stroke-linejoin="round" stroke-miterlimit="10" stroke-width="2"/><path d="  M35,4c0-2-3.75-3-10-3S15,2,15,4" fill="none" stroke="#000000" stroke-linecap="round" stroke-linejoin="round" stroke-miterlimit="10" stroke-width="2"/><line fill="none" stroke="#000000" stroke-linecap="round" stroke-linejoin="round" stroke-miterlimit="10" stroke-width="2" x1="29" x2="28" y1="1.511" y2="7.511"/><line fill="none" stroke="#000000" stroke-linecap="round" stroke-linejoin="round" stroke-miterlimit="10" stroke-width="2" x1="21" x2="22" y1="1.511" y2="7.511"/><circle cx="16" cy="37" fill="none" r="3" stroke="#000000" stroke-linecap="round" stroke-linejoin="round" stroke-miterlimit="10" stroke-width="1.8918"/><circle cx="34" cy="37" fill="none" r="3" stroke="#000000" stroke-linecap="round" stroke-linejoin="round" stroke-miterlimit="10" stroke-width="1.8918"/></svg>