<?xml version="1.0" ?><!DOCTYPE svg  PUBLIC '-//W3C//DTD SVG 1.1//EN'  'http://www.w3.org/Graphics/SVG/1.1/DTD/svg11.dtd'><svg enable-background="new 0 0 50 50" height="50px" id="Layer_1" version="1.1" viewBox="0 0 50 50" width="50px" xml:space="preserve" xmlns="http://www.w3.org/2000/svg" xmlns:xlink="http://www.w3.org/1999/xlink"><rect fill="none" height="50" width="50"/><path d="M44,42v5c0,1.104-0.896,2-2,2h-4  c-1.104,0-2-0.896-2-2v-2" fill="none" stroke="#000000" stroke-miterlimit="10" stroke-width="2"/><path d="M14,45v2c0,1.104-0.896,2-2,2H8  c-1.103,0-2-0.896-2-2v-5" fill="none" stroke="#000000" stroke-miterlimit="10" stroke-width="2"/><path d="M20,18v-2.959C20,13.915,20.897,13,22,13h6  c1.104,0,2,0.915,2,2.041V18" fill="none" stroke="#000000" stroke-miterlimit="10" stroke-width="2"/><path d="  M35,35c0.904,0,3.245,0,4,0c1.104,0,2,0.895,2,2c0,1.307-0.919,1.927-2.08,2.584C37.187,40.566,36.676,41,35,41  c-1.656,0-3-1.342-3-3S33.344,35,35,35z" fill="none" stroke="#000000" stroke-linecap="round" stroke-linejoin="round" stroke-miterlimit="10" stroke-width="2"/><path d="  M15,35c-0.904,0-3.245,0-4,0c-1.104,0-2,0.895-2,2c0,1.307,0.919,1.927,2.08,2.584C12.813,40.566,13.324,41,15,41  c1.656,0,3-1.342,3-3S16.656,35,15,35z" fill="none" stroke="#000000" stroke-linecap="round" stroke-linejoin="round" stroke-miterlimit="10" stroke-width="2"/><path d="M7.9,45C6.853,45,6,44.166,6,43.143v-7.971  c0,0,4.901-13.085,5.571-14.386C12.384,19.208,14.429,18.5,15.9,18c0,0,2.1-1,9.1-1s9.1,1,9.1,1  c1.258,0.357,3.543,1.089,4.258,2.714C39.171,22.568,44,35.172,44,35.172v7.971C44,44.166,43.146,45,42.1,45H7.9z" fill="none" stroke="#000000" stroke-miterlimit="10" stroke-width="2"/><path d="M9.156,27C8.734,28.078,6.812,32,13,32  c2,0,22,0,24,0c6.188,0,4.266-3.922,3.844-5" fill="none" stroke="#000000" stroke-miterlimit="10" stroke-width="2"/><path d="M8.468,28H5.099C2.527,28,2,29.531,2,30.588  S2.787,32,4.083,32h2.771" fill="none" stroke="#000000" stroke-miterlimit="10" stroke-width="2"/><path d="M41.531,28H44.9c2.572,0,3.1,1.531,3.1,2.588  S47.213,32,45.918,32h-2.771" fill="none" stroke="#000000" stroke-miterlimit="10" stroke-width="2"/></svg>